<svg width="25" height="25" viewBox="0 0 25 25" fill="none" xmlns="http://www.w3.org/2000/svg">

<path d="M12.1489 5.29521C8.3389 5.47646 5.33231 8.64951 5.34378 12.4637C5.3473 13.6254 5.62777 14.722 6.12259 15.691L5.36297 19.3782C5.32191 19.5777 5.50179 19.7524 5.69994 19.7054L9.31297 18.8495C10.2412 19.3119 11.2839 19.5789 12.3873 19.5957C16.2815 19.6553 19.5285 16.5633 19.65 12.6705C19.78 8.49775 16.3361 5.09575 12.1489 5.29521ZM16.4601 16.4031C15.402 17.4611 13.9951 18.0439 12.4987 18.0439C11.6225 18.0439 10.7835 17.8473 10.0052 17.4596L9.50218 17.2089L7.28685 17.7337L7.75311 15.4702L7.50531 14.9847C7.1012 14.1934 6.89632 13.3378 6.89632 12.4415C6.89632 10.9451 7.47909 9.53828 8.53714 8.48012C9.58577 7.43139 11.0156 6.8393 12.4988 6.8393C13.9951 6.8393 15.402 7.42207 16.46 8.48012C17.5181 9.53818 18.1009 10.9451 18.1009 12.4414C18.101 13.9246 17.5088 15.3544 16.4601 16.4031Z" fill="#EDEDED"/>
<path d="M15.9718 13.9932L14.5858 13.5953C14.4038 13.5431 14.2075 13.5948 14.0747 13.7301L13.7358 14.0753C13.5929 14.221 13.3761 14.2677 13.1869 14.1912C12.5313 13.9259 11.1522 12.6996 10.8002 12.0864C10.6984 11.9095 10.7152 11.6884 10.84 11.5268L11.1358 11.144C11.2518 10.9941 11.2762 10.7926 11.1996 10.6193L10.6165 9.30052C10.4769 8.9847 10.0733 8.8927 9.80953 9.11575C9.42276 9.44295 8.96383 9.93997 8.90812 10.4907C8.80973 11.4618 9.22623 12.6858 10.8008 14.1555C12.62 15.8537 14.0769 16.0778 15.0255 15.8481C15.5636 15.7179 15.9936 15.1955 16.2648 14.7677C16.4499 14.4759 16.3036 14.0886 15.9718 13.9932Z" fill="#EDEDED"/>
</svg>
