<svg width="51" height="51" viewBox="0 0 51 43" fill="none" xmlns="http://www.w3.org/2000/svg">
<path d="M49.4385 20.4096C49.4385 20.4938 49.4104 20.6061 49.3824 20.6903C49.3543 20.7745 49.3543 20.8587 49.3262 20.943C49.2981 21.0272 49.2701 21.1395 49.242 21.2237C49.2139 21.3079 49.1858 21.3922 49.1578 21.4764C49.1297 21.5606 49.1016 21.6729 49.0455 21.7571C49.0174 21.8413 48.9893 21.9256 48.9612 21.9817C48.9332 22.0659 48.877 22.1782 48.8489 22.2624C48.8209 22.3467 48.7647 22.4309 48.7367 22.5151C48.6805 22.5993 48.6524 22.6836 48.5963 22.7959C48.5401 22.8801 48.5121 22.9643 48.4559 23.0485C48.3998 23.1328 48.3436 23.217 48.2875 23.3012C48.2313 23.3854 48.1752 23.4696 48.0909 23.5539C48.0348 23.6381 47.9786 23.7223 47.8944 23.8065C47.8383 23.8907 47.7541 23.975 47.6979 24.0592C47.6418 24.1434 47.5856 24.1996 47.5014 24.2838C47.3891 24.3961 47.3049 24.5084 47.1926 24.6207C47.1364 24.6768 47.0522 24.761 46.9961 24.8172C46.8838 24.9295 46.7715 25.0418 46.6311 25.1541C46.5469 25.2102 46.4907 25.2945 46.4065 25.3506C46.3503 25.4067 46.2942 25.4348 46.2381 25.491C46.1258 25.5752 45.9854 25.6875 45.8731 25.7717C45.8169 25.8279 45.7608 25.8559 45.7046 25.9121C45.5643 26.0244 45.3958 26.1367 45.2555 26.2209C45.2274 26.249 45.1712 26.277 45.1432 26.3051C44.9466 26.4455 44.7501 26.5578 44.5536 26.6701C44.3852 26.7543 44.2167 26.8666 44.0763 26.9508C43.9921 27.007 43.9079 27.035 43.8237 27.0912C43.571 27.2316 43.3183 27.3719 43.0376 27.4842L31.9764 32.7902C28.4671 34.4747 24.3683 34.222 21.0837 32.1445L0.224594 18.8936L0 27.5123L20.8591 40.7633C24.1437 42.8408 28.2426 43.0934 31.7518 41.409L42.813 36.103C43.0938 35.9626 43.3464 35.8503 43.5991 35.7099C43.6833 35.6538 43.7675 35.6257 43.8518 35.5696C44.0202 35.4854 44.1886 35.3731 44.3571 35.2888C44.3852 35.2888 44.3852 35.2608 44.4132 35.2608C44.6098 35.1485 44.7782 35.0362 44.9747 34.9239C45.0028 34.8958 45.0589 34.8677 45.087 34.8397C45.2274 34.7274 45.3958 34.6431 45.5362 34.5308C45.5924 34.4747 45.6485 34.4466 45.7046 34.3905C45.845 34.3062 45.9573 34.1939 46.0696 34.1097C46.1258 34.0536 46.1819 34.0255 46.2381 33.9693C46.2661 33.9413 46.2942 33.9132 46.3223 33.9132C46.3784 33.8571 46.4065 33.829 46.4626 33.7728C46.5749 33.6605 46.7153 33.5482 46.8276 33.4359C46.8838 33.3798 46.968 33.2956 47.0241 33.2394C47.1364 33.1271 47.2487 33.0148 47.3329 32.9025C47.361 32.8745 47.4172 32.8183 47.4452 32.7902C47.4733 32.7622 47.5014 32.7341 47.5295 32.6779C47.6137 32.5937 47.6698 32.5095 47.726 32.4253C47.7821 32.341 47.8664 32.2568 47.9225 32.1726C47.9787 32.0884 48.0348 32.0042 48.119 31.9199C48.1471 31.8638 48.2032 31.8077 48.2313 31.7515C48.2594 31.7234 48.2594 31.6954 48.2875 31.6673C48.3436 31.5831 48.3717 31.4988 48.4278 31.4146C48.484 31.3304 48.5401 31.2462 48.5682 31.1339C48.5963 31.0496 48.6524 30.9654 48.6805 30.8812C48.7086 30.825 48.7367 30.7689 48.7647 30.7128C48.7928 30.6847 48.7928 30.6285 48.8209 30.6005C48.8489 30.5162 48.877 30.432 48.9051 30.3759C48.9332 30.2916 48.9612 30.1793 49.0174 30.0951C49.0455 30.0109 49.0735 29.9267 49.1016 29.8425C49.1016 29.7863 49.1297 29.7582 49.1297 29.7021C49.1297 29.6459 49.1578 29.5898 49.1578 29.5617C49.1858 29.4775 49.1858 29.3933 49.2139 29.3091C49.242 29.2248 49.242 29.1125 49.2701 29.0283C49.2701 28.9441 49.2981 28.8599 49.2981 28.7756C49.2981 28.7476 49.2981 28.6914 49.2981 28.6633V28.523V28.6633C49.2981 28.5511 49.3262 28.4388 49.3262 28.3265L49.5508 19.7077C49.5508 19.8481 49.5227 20.0165 49.5227 20.1569C49.4666 20.2411 49.4385 20.3253 49.4385 20.4096Z" fill="#C59358"/>
<path d="M21.8976 10.0225C22.9925 9.48904 24.2278 9.09601 25.5192 8.84334C26.1649 8.70297 26.8106 8.61875 27.4563 8.53453C27.9616 8.47838 28.4389 8.45031 28.9442 8.42223C29.3934 8.39416 29.8145 8.39416 30.2637 8.42223C30.6848 8.42223 31.0778 8.4503 31.499 8.47838C31.892 8.50645 32.285 8.53453 32.6781 8.59068C33.0711 8.64683 33.4641 8.70297 33.8572 8.78719C34.2502 8.87142 34.6713 8.95564 35.0363 9.03986C35.4574 9.15215 35.8785 9.26446 36.2996 9.40483C36.805 9.57327 37.2822 9.74171 37.7314 9.93823C38.3771 10.219 38.9667 10.5278 39.5281 10.8928C39.7247 11.0331 39.9212 11.1454 40.1177 11.2858C41.9706 10.0786 42.9251 8.5626 42.9532 7.01853C42.9532 6.96238 42.9532 6.93431 42.9532 6.87816C42.9532 6.82201 42.9532 6.76586 42.9532 6.68163C42.9532 6.62549 42.9532 6.59741 42.9532 6.54126C42.9532 6.48512 42.9532 6.42897 42.9251 6.37282C42.9251 6.31667 42.897 6.2886 42.897 6.23245C42.897 6.1763 42.869 6.12016 42.869 6.06401C42.869 6.00786 42.8409 5.95171 42.8409 5.92364C42.8128 5.86749 42.8128 5.81134 42.7847 5.75519C42.7567 5.69904 42.7567 5.6429 42.7286 5.61482C42.7005 5.55867 42.6725 5.50252 42.6725 5.44638C42.6444 5.39023 42.6444 5.33408 42.6163 5.306C42.5882 5.24986 42.5602 5.19371 42.5321 5.13756C42.504 5.08141 42.4759 5.05334 42.4479 4.99719C42.4198 4.94104 42.3917 4.88489 42.3636 4.82874C42.3356 4.77259 42.3075 4.74452 42.2794 4.68837C42.2513 4.63222 42.1952 4.57608 42.1671 4.51993C42.139 4.46379 42.111 4.43571 42.0548 4.37956C42.0267 4.32341 41.9706 4.26726 41.9144 4.21112C41.8864 4.15497 41.8302 4.12689 41.8022 4.07075C41.746 4.0146 41.7179 3.95845 41.6618 3.9023C41.6337 3.84615 41.5776 3.81808 41.5495 3.76193C41.4933 3.70578 41.4372 3.64963 41.381 3.59348C41.3249 3.53733 41.2968 3.50926 41.2407 3.45311C41.1845 3.39696 41.1284 3.34081 41.0442 3.28467C40.988 3.25659 40.9599 3.20045 40.9038 3.17237C40.8476 3.11622 40.7634 3.06007 40.7073 3.00392C40.6511 2.97585 40.623 2.9197 40.5669 2.89163C40.4827 2.83548 40.3985 2.77934 40.3142 2.69512C40.2581 2.66704 40.23 2.63896 40.1739 2.61089C40.0335 2.52667 39.9212 2.44245 39.7808 2.35822C39.7808 2.35822 39.7808 2.35822 39.7527 2.35822C39.6124 2.274 39.472 2.18978 39.3316 2.10556C39.2755 2.07748 39.2193 2.0494 39.1913 2.02133C39.079 1.96518 38.9947 1.90904 38.8824 1.85289C38.8263 1.82482 38.7701 1.79674 38.6859 1.76867C38.6017 1.71252 38.4894 1.68444 38.4052 1.62829C38.349 1.60022 38.2648 1.57215 38.2087 1.54408C38.1244 1.516 38.0402 1.45986 37.9279 1.43178C37.7314 1.34756 37.5068 1.26333 37.3103 1.17911C37.2541 1.15103 37.198 1.15104 37.1419 1.12296C36.9734 1.06682 36.805 1.01067 36.6365 0.954518C36.5804 0.926444 36.4961 0.898366 36.44 0.898366C36.3277 0.870292 36.1873 0.814146 36.075 0.786072C35.9908 0.757998 35.9347 0.729929 35.8504 0.729929C35.7101 0.67378 35.5416 0.645699 35.4013 0.617625C35.3451 0.617625 35.317 0.589558 35.2609 0.589558C35.1205 0.561484 34.9521 0.505329 34.8117 0.477255C34.7556 0.477255 34.7275 0.449187 34.6713 0.449187C34.4748 0.421113 34.2783 0.364958 34.0818 0.336884C33.9976 0.30881 33.8853 0.308815 33.801 0.280741C33.6887 0.252667 33.6045 0.252664 33.4922 0.224589C33.408 0.196515 33.2957 0.196514 33.2115 0.196514C33.0992 0.16844 33.015 0.168445 32.9027 0.140371C32.7904 0.140371 32.7061 0.112295 32.5939 0.112295C32.5096 0.112295 32.3973 0.0842189 32.3131 0.0842189C32.2008 0.0842189 32.0885 0.0561431 31.9762 0.0561431C31.892 0.0561431 31.8078 0.0280758 31.6955 0.0280758C31.6393 0.0280758 31.5551 0.0280758 31.499 0.0280758C31.3586 0.0280758 31.2182 0 31.1059 0C31.0217 0 30.9375 0 30.8813 0C30.769 0 30.6287 0 30.5164 0C30.4602 0 30.4041 0 30.3198 0C30.1795 0 30.011 0 29.8707 0C29.7864 0 29.7022 0 29.618 0C29.4776 0 29.3653 0 29.225 0C29.1407 0 29.0846 0 29.0004 0C28.8319 0 28.6915 0.0280758 28.5231 0.0280758C28.4389 0.0280758 28.3547 0.028069 28.2985 0.0561431C28.1301 0.0561431 27.9616 0.0842206 27.7932 0.112295C27.737 0.112295 27.6809 0.112296 27.5967 0.140371C27.3159 0.168445 27.0352 0.196517 26.7544 0.252665C26.6983 0.252665 26.6421 0.280741 26.586 0.280741C26.3053 0.336889 26.0245 0.364963 25.7438 0.421112C25.4069 0.505334 25.0419 0.56148 24.705 0.673777C24.6489 0.701851 24.5927 0.701854 24.5366 0.729929C24.4243 0.758003 24.312 0.786075 24.1997 0.842223C24.1435 0.870297 24.0874 0.870292 24.0032 0.898366C23.8909 0.92644 23.8067 0.954521 23.6944 1.01067C23.6382 1.03874 23.554 1.06681 23.4978 1.06681C23.3855 1.09489 23.3013 1.15103 23.189 1.17911C23.1329 1.20718 23.0767 1.23526 23.0206 1.23526C22.9083 1.26333 22.796 1.31948 22.7118 1.37563C22.6556 1.4037 22.5995 1.40371 22.5714 1.43178C22.431 1.48793 22.2626 1.57215 22.1222 1.62829L10.668 7.10275L18.3322 11.9596L21.8976 10.0225Z" fill="#1D1D1B"/>
<path d="M50.0025 7.60783C50.0025 7.69205 49.9744 7.77627 49.9744 7.86049C49.9744 7.94471 49.9463 8.02893 49.9463 8.11316C49.9182 8.19738 49.9182 8.2816 49.8902 8.36582C49.8621 8.45004 49.8621 8.5062 49.834 8.59042V8.61849C49.8059 8.70271 49.7779 8.78694 49.7498 8.87116C49.7217 8.95538 49.6936 9.0396 49.6656 9.12383C49.6375 9.20805 49.6094 9.29227 49.5814 9.37649C49.5533 9.46071 49.5252 9.51686 49.4971 9.60108C49.4971 9.60108 49.4971 9.62916 49.4691 9.62916C49.441 9.71338 49.3848 9.7976 49.3287 9.88182C49.3006 9.96604 49.2445 10.0503 49.2164 10.1064C49.1602 10.1906 49.1041 10.2749 49.076 10.3591C49.0479 10.4152 48.9918 10.4995 48.9637 10.5556L48.9356 10.5837C48.9356 10.6117 48.9076 10.6118 48.9076 10.6398C48.8234 10.7802 48.7111 10.9486 48.5988 11.089L48.5707 11.1171C48.4584 11.2575 48.3461 11.4259 48.2057 11.5663C48.2057 11.5663 48.2057 11.5663 48.2057 11.5943C48.0934 11.7347 47.9531 11.8751 47.8408 11.9874C47.8127 12.0155 47.7846 12.0435 47.7565 12.0716C47.6162 12.212 47.4758 12.3243 47.3354 12.4646C47.3074 12.4927 47.2793 12.5208 47.2512 12.5208C47.1951 12.5769 47.1108 12.6331 47.0547 12.6892C46.9985 12.7454 46.9424 12.7735 46.8862 12.8296C46.8301 12.8858 46.7739 12.9138 46.7178 12.97C46.6055 13.0542 46.4651 13.1665 46.3528 13.2507C46.2967 13.2788 46.2686 13.3349 46.2125 13.363C46.044 13.5034 45.8475 13.6157 45.651 13.7561C45.6229 13.7841 45.5668 13.8122 45.5387 13.8403C45.4264 13.9245 45.286 14.0087 45.1456 14.0929C45.1176 14.121 45.0614 14.1491 45.0333 14.1491C45.0053 14.1772 44.9772 14.1772 44.9211 14.2052C44.7245 14.3175 44.528 14.4298 44.3315 14.5421C44.3034 14.5702 44.2754 14.5702 44.2473 14.5983C44.0227 14.7106 43.7981 14.8229 43.5735 14.9352L43.2928 15.0755L32.5123 20.2412C29.003 21.9256 24.9042 21.673 21.6195 19.5955L19.0086 17.9391L10.5303 12.605L0.732406 6.40063L0.507812 15.0194L21.3669 28.2704C24.6515 30.3478 28.7504 30.6005 32.2596 28.9161L43.3208 23.6101C43.8823 23.3293 44.4157 23.0486 44.893 22.7678C45.5948 22.3467 46.2405 21.8695 46.802 21.3922C47.2231 21.0272 47.5881 20.6623 47.925 20.2692C48.2057 19.9324 48.4584 19.5955 48.683 19.2305C48.8795 18.8936 49.076 18.5567 49.2164 18.2198C49.3568 17.8829 49.4691 17.5461 49.5814 17.2092C49.6656 16.8723 49.7217 16.5073 49.7498 16.1704L49.9744 7.55167C50.0025 7.57975 50.0025 7.57975 50.0025 7.60783Z" fill="#1D1D1B"/>
<path d="M34.0826 12.6333C33.6896 12.5491 33.2965 12.4929 32.9035 12.4368C32.5105 12.3806 32.1174 12.3525 31.7244 12.3245C31.3033 12.2964 30.9102 12.2683 30.4891 12.2683C30.0399 12.2683 29.6188 12.2683 29.1696 12.2683C28.6643 12.2964 28.159 12.3245 27.6817 12.3806C27.036 12.4648 26.3622 12.5491 25.7446 12.6894C24.4532 12.9702 22.9933 13.4474 21.8984 13.9808L22.123 14.1212C25.4077 16.1987 29.5065 16.4514 33.0158 14.7669L36.3285 13.1667C35.9916 13.0544 35.6267 12.9702 35.2898 12.8859C34.8968 12.8017 34.5037 12.7175 34.0826 12.6333Z" fill="#C59358"/>
</svg>
