<svg width="35" height="35" viewBox="0 0 35 35" fill="none" xmlns="http://www.w3.org/2000/svg">
<path d="M29.3795 2.3584H5.58924C3.10187 2.3584 1.07812 4.38174 1.07812 6.86952V21.4287C1.07812 23.9108 3.09306 25.931 5.57322 25.9398V32.5465L15.0679 25.9398H29.3795C31.8669 25.9398 33.8906 23.916 33.8906 21.4287V6.86952C33.8906 4.38174 31.8669 2.3584 29.3795 2.3584ZM31.968 21.4287C31.968 22.8558 30.8068 24.0172 29.3795 24.0172H14.4647L7.49583 28.8665V24.0172H5.58924C4.16191 24.0172 3.00073 22.8558 3.00073 21.4287V6.86952C3.00073 5.44198 4.16191 4.28101 5.58924 4.28101H29.3795C30.8068 4.28101 31.968 5.44198 31.968 6.86952V21.4287Z" fill="white"/>
<path d="M9.85938 9.15186H25.1077V11.0745H9.85938V9.15186Z" fill="white"/>
<path d="M9.85938 13.2534H25.1077V15.176H9.85938V13.2534Z" fill="white"/>
<path d="M9.85938 17.355H25.1077V19.2776H9.85938V17.355Z" fill="white"/>
</svg>
