<svg width="50" height="50" viewBox="0 0 50 50" fill="none" xmlns="http://www.w3.org/2000/svg">
<g clip-path="url(#clip0)">
<path d="M43.5265 36.2373C44.317 35.3256 44.7523 34.1578 44.7523 32.949C44.7523 30.1781 42.4983 27.9238 39.7277 27.9238C38.2688 27.9238 36.8843 28.5567 35.9288 29.6604C35.1384 30.5727 34.7031 31.7406 34.7031 32.949C34.7031 35.7196 36.9571 37.9736 39.7277 37.9736C41.1868 37.9735 42.5715 37.3406 43.5265 36.2373ZM36.1691 32.949C36.1691 32.0932 36.4772 31.266 37.0369 30.6202C37.0369 30.6201 37.037 30.62 37.0371 30.62C37.7139 29.8382 38.6946 29.3898 39.7277 29.3898C41.69 29.3898 43.2864 30.9865 43.2864 32.9491C43.2864 33.8051 42.9784 34.6319 42.4185 35.2776C41.7417 36.0595 40.7609 36.5078 39.7277 36.5078C37.7655 36.5076 36.1691 34.9112 36.1691 32.949Z" fill="#C59358"/>
<path d="M46.5005 26.2313C44.748 24.4647 42.425 23.4597 39.9597 23.4017C37.3628 23.3405 34.9123 24.3047 33.0572 26.1166C31.2017 27.929 30.1797 30.3555 30.1797 32.949C30.1797 34.1897 30.4161 35.3997 30.8824 36.5452C31.035 36.9201 31.4627 37.1003 31.8376 36.9478C32.2125 36.7951 32.3928 36.3675 32.2401 35.9926C31.8456 35.0234 31.6457 33.9994 31.6457 32.949C31.6457 30.7536 32.5107 28.6996 34.0815 27.1653C35.6519 25.6316 37.7279 24.8146 39.9251 24.8673C42.0099 24.9163 43.9755 25.7675 45.4598 27.2638C46.9441 28.76 47.7796 30.7325 47.8127 32.8179C47.8411 34.6167 47.2909 36.3277 46.2165 37.7732L42.2307 43.2692C41.5125 44.2597 41.0173 45.3682 40.759 46.5637L40.4607 47.9442C40.3867 48.286 40.0794 48.5339 39.7298 48.5339C39.3802 48.5339 39.0729 48.2858 38.999 47.9441L38.7006 46.5637C38.4422 45.3681 37.947 44.2596 37.2287 43.2691L33.785 38.5206C33.5474 38.193 33.0891 38.1199 32.7612 38.3576C32.4336 38.5953 32.3605 39.0535 32.5982 39.3814L36.042 44.1298C36.6401 44.9546 37.0525 45.8776 37.2677 46.8734L37.566 48.2539C37.7846 49.2657 38.6945 49.9999 39.7296 49.9999C40.7647 49.9999 41.6746 49.2655 41.8932 48.2539L42.1916 46.8733C42.4067 45.8777 42.8191 44.9547 43.4172 44.1298L47.3979 38.6407C48.6617 36.9406 49.3118 34.919 49.2782 32.7945C49.2394 30.3285 48.2528 27.9977 46.5005 26.2313Z" fill="#C59358"/>
<path d="M8.51289 12.0054C9.72344 12.0054 10.8725 11.4801 11.6647 10.5649C12.3207 9.80825 12.682 8.83931 12.682 7.83628C12.682 7.22769 12.5528 6.6397 12.2979 6.08853C12.128 5.72105 11.6924 5.56089 11.3251 5.73081C10.9576 5.90063 10.7976 6.33628 10.9674 6.70366C11.1323 7.0606 11.2161 7.44175 11.2161 7.83628C11.2161 8.48648 10.982 9.1145 10.5567 9.60493C10.0427 10.1988 9.29775 10.5395 8.51289 10.5395C7.02236 10.5395 5.80977 9.3269 5.80977 7.83638C5.80977 7.18628 6.04385 6.55796 6.46914 6.06724C6.9832 5.47339 7.72812 5.13267 8.51299 5.13267C8.65146 5.13267 8.79043 5.14321 8.92617 5.16392C9.32637 5.22544 9.70029 4.95044 9.76152 4.55024C9.82275 4.15015 9.54805 3.77603 9.14785 3.71489C8.93897 3.68296 8.72539 3.66675 8.51289 3.66675C7.30234 3.66675 6.15332 4.19204 5.36084 5.10757C4.70498 5.8646 4.34375 6.83374 4.34375 7.83638C4.34385 10.1351 6.21406 12.0054 8.51289 12.0054Z" fill="#C59358"/>
<path d="M5.44043 16.8741C5.90742 17.5179 6.2293 18.2384 6.39727 19.0158L6.63613 20.1213C6.82559 20.9981 7.61416 21.6344 8.51133 21.6344C9.40849 21.6344 10.1971 20.998 10.3865 20.1213L10.6254 19.0159C10.7934 18.2384 11.1153 17.5179 11.5822 16.8742L14.7685 12.4806C15.7997 11.0935 16.3303 9.44392 16.3028 7.71033C16.271 5.69802 15.4661 3.79597 14.0363 2.35476C12.6062 0.913353 10.7108 0.0934312 8.69893 0.0459703C6.58018 -0.0043227 4.58057 0.782884 3.0668 2.2613C1.55273 3.74011 0.71875 5.71999 0.71875 7.8362C0.71875 9.52351 1.24971 11.1296 2.24912 12.4737L5.44043 16.8741ZM4.09111 3.30993C5.2833 2.14548 6.84717 1.50964 8.51025 1.50964C8.56133 1.50964 8.61299 1.51023 8.66426 1.5115C10.2955 1.54988 11.8337 2.21599 12.9954 3.38708C14.1571 4.55818 14.8111 6.10163 14.8369 7.73347C14.8592 9.14128 14.4286 10.4803 13.5868 11.613L10.3955 16.0134C9.80859 16.8227 9.40381 17.7287 9.19258 18.706L8.95371 19.8114C8.90898 20.0183 8.72295 20.1684 8.51143 20.1684C8.2999 20.1684 8.11377 20.0183 8.06914 19.8115L7.83027 18.7061C7.61904 17.7289 7.21435 16.8229 6.62725 16.0135L3.43086 11.606C2.61582 10.5096 2.18496 9.20603 2.18496 7.8362C2.18467 6.11814 2.86182 4.51062 4.09111 3.30993Z" fill="#C59358"/>
<path d="M42.1253 8.39477C41.8522 8.6936 41.8731 9.15727 42.172 9.43032C42.3126 9.55883 42.4895 9.62212 42.6662 9.62212C42.8648 9.62212 43.063 9.54174 43.2075 9.38354L43.2202 9.36987C43.2379 9.35083 43.2555 9.33169 43.2716 9.31294C43.8271 8.67221 44.1331 7.85161 44.1331 7.00229C44.1331 5.05542 42.5493 3.47144 40.6026 3.47144C39.5858 3.47144 38.618 3.9105 37.9472 4.67612C37.6805 4.98061 37.7111 5.4437 38.0156 5.7104C38.3201 5.9772 38.7832 5.94663 39.05 5.64204C39.4424 5.19419 40.0083 4.93725 40.6027 4.93725C41.7411 4.93725 42.6673 5.86362 42.6673 7.0022C42.6673 7.49878 42.4886 7.97827 42.1633 8.35356L42.1253 8.39477Z" fill="#C59358"/>
<path d="M35.0794 3.94507C35.4081 4.1813 35.8662 4.10611 36.1024 3.7774C37.1723 2.28785 38.9044 1.42261 40.735 1.46744C42.1624 1.50103 43.5084 2.08404 44.5252 3.10884C45.5419 4.13374 46.1143 5.48453 46.1368 6.91236C46.1563 8.14429 45.7795 9.31626 45.0422 10.3084L44.2845 11.3532C44.0468 11.6808 44.1198 12.1391 44.4475 12.3768C44.5775 12.4711 44.7279 12.5165 44.8771 12.5165C45.1039 12.5165 45.3276 12.4114 45.471 12.2137L46.2236 11.1758C47.1503 9.92925 47.6272 8.44693 47.6024 6.88912C47.5739 5.08072 46.8505 3.37144 45.5658 2.07642C44.2809 0.781303 42.5776 0.0444863 40.7694 0.00190817C38.4539 -0.0519981 36.2644 1.03902 34.9117 2.92222C34.8471 3.01236 34.6548 3.47154 34.9629 3.84058C34.9973 3.87867 35.036 3.91392 35.0794 3.94507Z" fill="#C59358"/>
<path d="M33.8804 43.893C33.8814 43.6898 33.7994 43.4874 33.6359 43.3417C33.3338 43.0723 32.8704 43.0988 32.6011 43.401C32.1355 43.923 31.6503 44.4016 31.1571 44.826C30.1228 45.1838 29.0649 45.4562 27.9877 45.6445C28.8051 43.8856 29.5063 41.4672 30.0419 38.5389C30.1148 38.1407 29.851 37.7589 29.4528 37.686C29.0552 37.6132 28.6729 37.8769 28.6 38.2751C27.9963 41.5755 27.1569 44.2518 26.2207 45.8756C25.6089 45.9289 24.9919 45.9569 24.3698 45.9569C23.7455 45.9569 23.1281 45.9277 22.5177 45.8735C21.4379 44.0054 20.5461 40.8807 19.9391 37.0581C21.3898 37.176 22.8716 37.2368 24.3698 37.2368C25.7574 37.2368 27.1583 37.1843 28.5334 37.0807C28.937 37.0502 29.2396 36.6983 29.2093 36.2947C29.1788 35.891 28.8262 35.5892 28.4233 35.6188C27.0848 35.7197 25.721 35.7709 24.3698 35.7709C22.7938 35.7709 21.2388 35.7016 19.7218 35.5692C19.3262 32.6082 19.094 29.3023 19.0649 25.8795H30.9513C31.3561 25.8795 31.6843 25.5514 31.6843 25.1465C31.6843 24.8074 31.4537 24.5229 31.1411 24.4393C31.1146 21.0547 30.898 17.8096 30.5224 14.8776C32.9688 15.1645 35.2942 15.62 37.4188 16.2252C37.8697 17.8507 38.1992 19.5566 38.3917 21.296C38.4332 21.671 38.7507 21.9483 39.1193 21.9483C39.1462 21.9483 39.1734 21.9469 39.2009 21.9438C39.6032 21.8993 39.8933 21.537 39.8487 21.1347C39.6831 19.638 39.4198 18.1637 39.0684 16.7389C41.0602 17.4154 42.8327 18.2335 44.3091 19.1746C44.6773 20.4059 44.9329 21.6763 45.0674 22.9717C45.1064 23.3486 45.4247 23.629 45.7955 23.629C45.8208 23.629 45.8464 23.6277 45.8722 23.625C46.2748 23.5832 46.5673 23.2229 46.5256 22.8203C45.9601 17.3725 43.4047 12.3369 39.3305 8.6415C35.2271 4.91982 29.9141 2.87012 24.3699 2.87012C22.1081 2.87012 19.8762 3.2082 17.7362 3.8749C17.3497 3.99531 17.134 4.40625 17.2544 4.79277C17.3748 5.1792 17.7854 5.39463 18.1723 5.27461C19.0182 5.01104 19.8798 4.80312 20.7523 4.6502C19.7805 6.74434 18.9788 9.76035 18.4264 13.3784C17.5915 13.4699 16.7651 13.5786 15.9521 13.7089C15.5523 13.7729 15.2803 14.1489 15.3443 14.5486C15.4084 14.9484 15.7844 15.22 16.1841 15.1563C16.8533 15.049 17.5312 14.9556 18.216 14.8754C18.0988 15.7902 17.9968 16.7377 17.9113 17.7136C17.876 18.1168 18.1742 18.4725 18.5774 18.5077C18.5992 18.5097 18.6208 18.5105 18.6423 18.5105C19.0182 18.5105 19.3382 18.223 19.3716 17.8415C19.4657 16.7677 19.5816 15.7264 19.7162 14.7244C21.2421 14.5915 22.797 14.5221 24.3699 14.5221C25.9459 14.5221 27.501 14.5914 29.018 14.7237C29.4136 17.6848 29.6457 20.9906 29.6748 24.4135H19.066C19.0757 23.246 19.1071 22.0796 19.1625 20.9365C19.182 20.5321 18.8702 20.1885 18.4659 20.1689C18.0599 20.1505 17.7179 20.4613 17.6983 20.8655C17.6419 22.0321 17.6099 23.2223 17.6002 24.4134H10.1452C10.15 24.2006 10.1565 23.9824 10.1654 23.7547C10.1813 23.3502 9.86621 23.0095 9.46172 22.9936C9.05908 22.9762 8.71641 23.2927 8.70059 23.6973C8.69092 23.9448 8.68369 24.1822 8.67871 24.4133H3.57295C3.64043 22.4737 3.97471 20.5634 4.5709 18.7244C4.6957 18.3394 4.48467 17.926 4.09961 17.8012C3.71445 17.6764 3.30117 17.8874 3.17637 18.2725C2.45801 20.489 2.09375 22.8016 2.09375 25.1463C2.09375 31.0965 4.41084 36.6905 8.61826 40.898C12.8258 45.1055 18.4197 47.4226 24.37 47.4226C27.7312 47.4226 30.9623 46.6919 33.9735 45.251C34.3387 45.0763 34.4931 44.6386 34.3184 44.2735C34.2275 44.0844 34.0658 43.9523 33.8804 43.893ZM30.3125 13.3804C29.7655 9.79521 28.9698 6.7665 27.9889 4.65312C29.0702 4.84326 30.1314 5.11836 31.1638 5.47451C32.992 7.0499 34.6095 9.27529 35.8459 11.9226C36.2397 12.7656 36.5946 13.653 36.9091 14.5739C34.8475 14.0391 32.6281 13.6359 30.3125 13.3804ZM43.5437 17.046C42.0784 16.2812 40.4161 15.6125 38.6031 15.0528C38.202 13.7393 37.7243 12.4803 37.1741 11.3022C36.438 9.72617 35.5703 8.2875 34.6045 7.02549C35.9369 7.779 37.1927 8.68213 38.3454 9.72773C40.6129 11.7843 42.3765 14.2848 43.5437 17.046ZM24.3698 13.0564C22.8735 13.0564 21.392 13.1168 19.9352 13.2341C20.5512 9.38418 21.4583 6.25645 22.5193 4.41836C23.1328 4.36436 23.75 4.33633 24.3698 4.33633C24.9907 4.33633 25.6084 4.36455 26.2216 4.41904C27.3016 6.2873 28.1936 9.4125 28.8007 13.2357C27.3498 13.118 25.8683 13.0564 24.3698 13.0564ZM20.7513 45.6415C19.6605 45.4495 18.5991 45.1717 17.5735 44.8164C15.0892 42.6761 13.1164 39.4917 11.8286 35.7202C13.8906 36.2551 16.1112 36.6575 18.4271 36.9131C18.9742 40.4989 19.7702 43.5279 20.7513 45.6415ZM18.2173 35.4156C15.7694 35.1287 13.4428 34.6727 11.3173 34.0671C10.611 31.5157 10.2039 28.7451 10.1444 25.8797H17.5988C17.6264 29.255 17.8427 32.4911 18.2173 35.4156ZM3.57383 25.8797H8.67851C8.73193 28.5414 9.07519 31.1303 9.67344 33.5551C7.68271 32.8791 5.91104 32.0616 4.43486 31.1214C3.93379 29.4519 3.63701 27.6951 3.57383 25.8797ZM5.20264 33.2512C6.6667 34.0146 8.32852 34.6816 10.1395 35.2404C11.0732 38.294 12.4258 41.0313 14.1191 43.2516C10.1546 40.9982 6.99795 37.4811 5.20264 33.2512Z" fill="#C59358"/>
</g>
<defs>
<clipPath id="clip0">
<rect width="50" height="50" fill="white"/>
</clipPath>
</defs>
</svg>
