<svg width="50" height="50" viewBox="0 0 50 50" fill="none" xmlns="http://www.w3.org/2000/svg">
<path d="M45.1172 4.29688H40.4622V2.92969C40.4622 1.31426 39.1479 0 37.5325 0C35.9171 0 34.6028 1.31426 34.6028 2.92969V4.29688H18.1966V2.92969C18.1966 1.31426 16.8823 0 15.2669 0C13.6515 0 12.3372 1.31426 12.3372 2.92969V4.33301C12.2542 4.31006 12.1672 4.29688 12.0769 4.29688H8.18584C5.49346 4.29688 3.30303 6.4873 3.30303 9.17969V25.8138C3.30303 26.3531 3.74033 26.7903 4.27959 26.7903C4.81885 26.7903 5.25615 26.3531 5.25615 25.8138V14.3555H40.4622C41.0015 14.3555 41.4388 13.9183 41.4388 13.3789C41.4388 12.8396 41.0015 12.4023 40.4622 12.4023H5.25615V9.17969C5.25615 7.56426 6.57041 6.25 8.18584 6.25H12.0769C12.1672 6.25 12.2542 6.23672 12.3372 6.21387V7.4707C12.3372 9.08613 13.6515 10.4004 15.2669 10.4004C16.8823 10.4004 18.1966 9.08613 18.1966 7.4707V6.25H34.6028V7.4707C34.6028 9.08613 35.9171 10.4004 37.5325 10.4004C39.1479 10.4004 40.4622 9.08613 40.4622 7.4707V6.25H45.1172C46.7326 6.25 48.0469 7.56426 48.0469 9.17969V46.2885C48.0469 47.258 47.2581 48.0469 46.2885 48.0469C45.3188 48.0469 44.5301 47.258 44.5301 46.2885V43.7622C44.5301 43.2229 44.0928 42.7856 43.5535 42.7856H32.194C31.6548 42.7856 31.2175 43.2229 31.2175 43.7622C31.2175 44.3016 31.6548 44.7388 32.194 44.7388H42.577V46.2885C42.577 46.9243 42.7379 47.5231 43.0208 48.0469H3.71094C2.7417 48.0469 1.95312 47.2583 1.95312 46.2891V44.7388H23.811C24.3503 44.7388 24.7876 44.3016 24.7876 43.7622C24.7876 43.2229 24.3503 42.7856 23.811 42.7856H14.0536C15.7601 41.316 16.8437 39.1422 16.8437 36.7188C16.8437 32.3032 13.2514 28.7109 8.83584 28.7109C4.42031 28.7109 0.828027 32.3032 0.828027 36.7188C0.828027 39.1422 1.91162 41.316 3.61807 42.7856H0.976562C0.437305 42.7856 0 43.2229 0 43.7622V46.2891C0 48.3353 1.66475 50 3.71094 50H46.2885C48.335 50 50 48.3351 50 46.2885V9.17969C50 6.4873 47.8096 4.29688 45.1172 4.29688ZM16.2435 7.4707C16.2435 8.00918 15.8054 8.44727 15.2669 8.44727C14.7284 8.44727 14.2903 8.00918 14.2903 7.4707V2.92969C14.2903 2.39121 14.7284 1.95312 15.2669 1.95312C15.8054 1.95312 16.2435 2.39121 16.2435 2.92969V7.4707ZM38.5091 7.4707C38.5091 8.00918 38.071 8.44727 37.5325 8.44727C36.994 8.44727 36.556 8.00918 36.556 7.4707V2.92969C36.556 2.39121 36.994 1.95312 37.5325 1.95312C38.071 1.95312 38.5091 2.39121 38.5091 2.92969V7.4707ZM2.78115 36.7188C2.78115 33.3802 5.49727 30.6641 8.83584 30.6641C12.1744 30.6641 14.8905 33.3802 14.8905 36.7188C14.8905 40.0573 12.1744 42.7734 8.83584 42.7734C5.49727 42.7734 2.78115 40.0573 2.78115 36.7188Z" fill="#C59358"/>
<path d="M45.7333 12.6885C45.5518 12.5068 45.2998 12.4023 45.043 12.4023C44.786 12.4023 44.5342 12.5068 44.3525 12.6885C44.1709 12.8701 44.0664 13.1221 44.0664 13.3789C44.0664 13.6357 44.1708 13.8877 44.3525 14.0693C44.5343 14.251 44.786 14.3555 45.043 14.3555C45.2998 14.3555 45.5518 14.251 45.7333 14.0693C45.9149 13.8877 46.0195 13.6357 46.0195 13.3789C46.0195 13.1221 45.915 12.8701 45.7333 12.6885Z" fill="#C59358"/>
<path d="M29.163 43.0713C28.9814 42.8896 28.7295 42.7861 28.4727 42.7861C28.2158 42.7861 27.9639 42.8896 27.7822 43.0713C27.6006 43.2539 27.4961 43.5049 27.4961 43.7617C27.4961 44.0195 27.6005 44.2705 27.7822 44.4531C27.9639 44.6348 28.2158 44.7383 28.4727 44.7383C28.7295 44.7383 28.9814 44.6348 29.163 44.4531C29.3446 44.2705 29.4492 44.0186 29.4492 43.7617C29.4492 43.5049 29.3447 43.2539 29.163 43.0713Z" fill="#C59358"/>
<path d="M22.0938 29.6875C20.0476 29.6875 18.3828 31.3522 18.3828 33.3984C18.3828 35.4446 20.0476 37.1094 22.0938 37.1094C24.1399 37.1094 25.8047 35.4446 25.8047 33.3984C25.8047 31.3522 24.1399 29.6875 22.0938 29.6875ZM22.0938 35.1562C21.1245 35.1562 20.3359 34.3677 20.3359 33.3984C20.3359 32.4292 21.1245 31.6406 22.0938 31.6406C23.063 31.6406 23.8516 32.4292 23.8516 33.3984C23.8516 34.3677 23.063 35.1562 22.0938 35.1562Z" fill="#C59358"/>
<path d="M31.207 29.6875C29.1608 29.6875 27.4961 31.3522 27.4961 33.3984C27.4961 35.4446 29.1608 37.1094 31.207 37.1094C33.2532 37.1094 34.918 35.4446 34.918 33.3984C34.918 31.3522 33.2532 29.6875 31.207 29.6875ZM31.207 35.1562C30.2378 35.1562 29.4492 34.3677 29.4492 33.3984C29.4492 32.4292 30.2378 31.6406 31.207 31.6406C32.1763 31.6406 32.9648 32.4292 32.9648 33.3984C32.9648 34.3677 32.1763 35.1562 31.207 35.1562Z" fill="#C59358"/>
<path d="M40.3242 29.6875C38.278 29.6875 36.6133 31.3522 36.6133 33.3984C36.6133 35.4446 38.278 37.1094 40.3242 37.1094C42.3704 37.1094 44.0352 35.4446 44.0352 33.3984C44.0352 31.3522 42.3704 29.6875 40.3242 29.6875ZM40.3242 35.1562C39.355 35.1562 38.5664 34.3677 38.5664 33.3984C38.5664 32.4292 39.355 31.6406 40.3242 31.6406C41.2935 31.6406 42.082 32.4292 42.082 33.3984C42.082 34.3677 41.2935 35.1562 40.3242 35.1562Z" fill="#C59358"/>
<path d="M12.9805 19.5312C10.9343 19.5312 9.26953 21.196 9.26953 23.2422C9.26953 25.2884 10.9343 26.9531 12.9805 26.9531C15.0267 26.9531 16.6914 25.2884 16.6914 23.2422C16.6914 21.196 15.0267 19.5312 12.9805 19.5312ZM12.9805 25C12.0112 25 11.2227 24.2114 11.2227 23.2422C11.2227 22.2729 12.0112 21.4844 12.9805 21.4844C13.9497 21.4844 14.7383 22.2729 14.7383 23.2422C14.7383 24.2114 13.9497 25 12.9805 25Z" fill="#C59358"/>
<path d="M31.207 19.5312C29.1608 19.5312 27.4961 21.196 27.4961 23.2422C27.4961 25.2884 29.1608 26.9531 31.207 26.9531C33.2532 26.9531 34.918 25.2884 34.918 23.2422C34.918 21.196 33.2532 19.5312 31.207 19.5312ZM31.207 25C30.2378 25 29.4492 24.2114 29.4492 23.2422C29.4492 22.2729 30.2378 21.4844 31.207 21.4844C32.1763 21.4844 32.9648 22.2729 32.9648 23.2422C32.9648 24.2114 32.1763 25 31.207 25Z" fill="#C59358"/>
<path d="M40.3242 19.5312C38.278 19.5312 36.6133 21.196 36.6133 23.2422C36.6133 25.2884 38.278 26.9531 40.3242 26.9531C42.3704 26.9531 44.0352 25.2884 44.0352 23.2422C44.0352 21.196 42.3704 19.5312 40.3242 19.5312ZM40.3242 25C39.355 25 38.5664 24.2114 38.5664 23.2422C38.5664 22.2729 39.355 21.4844 40.3242 21.4844C41.2935 21.4844 42.082 22.2729 42.082 23.2422C42.082 24.2114 41.2935 25 40.3242 25Z" fill="#C59358"/>
<path d="M22.0938 19.5312C20.0476 19.5312 18.3828 21.196 18.3828 23.2422C18.3828 25.2884 20.0476 26.9531 22.0938 26.9531C24.1399 26.9531 25.8047 25.2884 25.8047 23.2422C25.8047 21.196 24.1399 19.5312 22.0938 19.5312ZM22.0938 25C21.1245 25 20.3359 24.2114 20.3359 23.2422C20.3359 22.2729 21.1245 21.4844 22.0938 21.4844C23.063 21.4844 23.8516 22.2729 23.8516 23.2422C23.8516 24.2114 23.063 25 22.0938 25Z" fill="#C59358"/>
<path d="M12.3154 34.3387C11.934 33.9574 11.3158 33.9574 10.9342 34.3387L7.75398 37.5191L6.66716 36.4323C6.28572 36.051 5.66755 36.051 5.28601 36.4323C4.90466 36.8137 4.90466 37.432 5.28601 37.8135L7.06345 39.5907C7.24665 39.7738 7.49499 39.8767 7.75398 39.8767C8.01296 39.8767 8.2613 39.7738 8.4445 39.5907L12.3154 35.7198C12.6967 35.3385 12.6967 34.7201 12.3154 34.3387Z" fill="#C59358"/>
</svg>
