<svg width="50" height="50" viewBox="0 0 50 50" fill="none" xmlns="http://www.w3.org/2000/svg">
<g clip-path="url(#clip0)">
<path d="M29.5925 6.01352C29.0673 5.88706 28.5406 6.20981 28.4143 6.73403C28.2879 7.25834 28.6105 7.78588 29.1348 7.91224C37.05 9.82034 42.578 16.8471 42.578 25C42.578 34.6925 34.6926 42.578 24.9999 42.578C15.3073 42.578 7.42187 34.6925 7.42187 25C7.42187 16.8474 12.9496 9.82063 20.8644 7.91234C21.3887 7.78588 21.7113 7.25834 21.5849 6.73412C21.4584 6.20981 20.9307 5.88745 20.4067 6.01362C16.2192 7.02328 12.4254 9.44388 9.7241 12.8295C6.94023 16.3187 5.46875 20.5271 5.46875 25C5.46875 35.7695 14.2304 44.5311 24.9999 44.5311C35.7694 44.5311 44.5311 35.7696 44.5311 25C44.5311 20.527 43.0596 16.3185 40.2755 12.8292C37.5742 9.44368 33.7802 7.02309 29.5925 6.01352Z" fill="#C59358"/>
<path d="M49.4116 22.6511L48.2691 20.5195L48.4596 17.8844C48.6428 16.1953 47.9691 14.5469 46.655 13.4719L44.7586 11.919L44.0126 9.67174C43.5948 7.95348 42.2898 6.57243 40.5967 6.06101L38.2558 5.35379L36.463 3.28153C35.4022 2.03378 33.7967 1.38476 32.1679 1.54482L29.7382 1.78691L27.3498 0.588767C25.878 -0.195898 24.1231 -0.196581 22.651 0.58867L20.5196 1.73105L17.8845 1.54042C16.1948 1.35722 14.547 2.03105 13.4721 3.34501L11.919 5.24148L9.67189 5.98748C7.95353 6.40525 6.57248 7.71022 6.06106 9.40328L5.35393 11.7442L3.28168 13.5371C2.03403 14.5978 1.38461 16.2031 1.54487 17.8322L1.78696 20.2618L0.588816 22.6502C-0.195946 24.1222 -0.196532 25.8769 0.588621 27.3491L1.7311 29.4805L1.54047 32.1157C1.35737 33.8047 2.0311 35.4531 3.34505 36.5282L5.24153 38.0811L5.98752 40.3284C6.4052 42.0466 7.71018 43.4277 9.40343 43.9391L11.7442 44.6462L13.5371 46.7186C14.5979 47.9662 16.2028 48.6156 17.8322 48.4553L20.2618 48.2132L22.65 49.4111C23.3862 49.8037 24.1932 50.0001 25.0002 50.0001C25.8067 50.0001 26.6131 49.804 27.349 49.4115L29.4805 48.2691L32.1155 48.4598C33.8045 48.6426 35.4529 47.9691 36.5281 46.6552L38.081 44.7587L40.3284 44.0128C42.0466 43.595 43.4275 42.2901 43.9389 40.5969L44.6462 38.2561L46.7185 36.4632C47.9662 35.4025 48.6156 33.7972 48.4553 32.168L48.2131 29.7386L49.4112 27.3502C50.1959 25.8781 50.1967 24.1232 49.4116 22.6511ZM47.6836 26.4388C47.6793 26.4468 47.6751 26.4548 47.6711 26.4628L46.3404 29.1156C46.2575 29.2808 46.2232 29.4663 46.2415 29.6504L46.5117 32.3603C46.6091 33.3512 46.2135 34.3288 45.447 34.9805L43.1543 36.9641C43.0144 37.0851 42.9119 37.2432 42.8585 37.4202L42.0693 40.032C41.7548 41.0734 40.9002 41.8741 39.8391 42.1214C39.8101 42.1282 39.7814 42.1363 39.7532 42.1456L37.1972 42.994C37.0217 43.0523 36.8663 43.1591 36.7492 43.3022L35.0168 45.418C34.3588 46.2223 33.348 46.633 32.3136 46.5166C32.3007 46.5151 32.2877 46.514 32.2749 46.513L29.3392 46.3007C29.1543 46.2874 28.9703 46.3267 28.8075 46.414L26.4282 47.6892C25.5309 48.1677 24.4592 48.1657 23.5613 47.6836C23.5533 47.6794 23.5453 47.6752 23.5373 47.6712L20.8845 46.3405C20.7482 46.2722 20.5982 46.2368 20.4466 46.2368C20.4144 46.2368 20.3821 46.2384 20.3498 46.2416L17.6398 46.5116C16.649 46.6095 15.6714 46.2135 15.0196 45.4471L13.036 43.1543C12.9151 43.0145 12.7569 42.9118 12.5799 42.8584L9.96808 42.0695C8.92658 41.7549 8.12599 40.9003 7.87863 39.8392C7.87189 39.8102 7.86379 39.7816 7.85441 39.7533L7.00608 37.1971C6.94787 37.0216 6.84104 36.8664 6.69797 36.7493L4.58226 35.0168C3.77796 34.3587 3.36722 33.3482 3.48363 32.3136C3.48509 32.3008 3.48627 32.2879 3.48724 32.2749L3.69955 29.339C3.71292 29.1547 3.67357 28.9703 3.58627 28.8073L2.31098 26.4282C1.83246 25.531 1.83451 24.4593 2.31645 23.5613C2.32074 23.5534 2.32484 23.5454 2.32885 23.5374L3.65951 20.8846C3.74242 20.7194 3.77669 20.5339 3.75833 20.3499L3.48832 17.6398C3.39086 16.6489 3.78646 15.6713 4.55296 15.0196L6.84573 13.036C6.98557 12.915 7.08811 12.7569 7.14162 12.5799L7.93068 9.96803C8.24523 8.92662 9.09982 8.12604 10.1609 7.87858C10.1899 7.87184 10.2186 7.86374 10.2469 7.85436L12.8028 7.00593C12.9783 6.94773 13.1336 6.84089 13.2507 6.69782L14.9833 4.58201C15.6413 3.77782 16.6521 3.36727 17.6864 3.48348C17.6993 3.48495 17.7122 3.48612 17.7251 3.4871L20.6608 3.6994C20.8447 3.71249 21.0296 3.67342 21.1925 3.58612L23.5717 2.31093C24.4689 1.83241 25.5407 1.83437 26.4385 2.3164C26.4464 2.3206 26.4544 2.3248 26.4625 2.3288L29.1154 3.65946C29.2806 3.74237 29.466 3.77674 29.65 3.75829L32.3601 3.48827C33.3509 3.39061 34.3285 3.78641 34.9803 4.55291L36.9639 6.84568C37.0848 6.98552 37.243 7.08806 37.42 7.14157L40.0318 7.93063C41.0732 8.24518 41.8738 9.09987 42.1213 10.1609C42.128 10.1899 42.1361 10.2185 42.1455 10.2468L42.9939 12.8028C43.0522 12.9783 43.159 13.1335 43.302 13.2506L45.4178 14.9831C46.2221 15.6411 46.6328 16.6516 46.5164 17.6863C46.5149 17.6991 46.5137 17.712 46.5129 17.725L46.3005 20.6609C46.2872 20.8452 46.3265 21.0296 46.4137 21.1926L47.689 23.5718C48.1676 24.4692 48.1656 25.5409 47.6836 26.4388Z" fill="#C59358"/>
<path d="M20.7642 19.6793C20.6076 19.3492 20.2721 19.1204 19.8825 19.1204H14.7227C14.1833 19.1204 13.7461 19.5576 13.7461 20.0969V34.8787C13.7461 35.4181 14.1833 35.8553 14.7227 35.8553H19.8825C20.2873 35.8553 20.6344 35.6091 20.7825 35.2582C21.5269 35.3627 22.2938 35.5744 23.0922 35.7955C24.2926 36.1278 25.5337 36.4715 26.8233 36.4715H32.4609C34.2036 36.4715 35.6158 35.5476 36.2386 33.9998C36.5419 33.2457 36.595 32.4631 36.4178 31.8079C36.742 31.5164 37.016 31.1535 37.2232 30.7298C37.6433 29.8712 37.7271 28.9057 37.4891 28.0925C37.9328 27.6638 38.2639 27.0977 38.4369 26.4302C38.5987 25.8062 38.5959 25.1905 38.452 24.657C39.3328 24.1388 39.9261 23.1974 39.9261 22.1367C39.9261 21.3047 39.6021 20.5381 39.0139 19.9782C38.449 19.4405 37.6967 19.1443 36.8955 19.1443L28.9492 19.1445C28.3454 18.3872 28.1576 17.3594 28.5013 16.5322C29.2068 14.8344 29.163 13.3972 28.3598 11.8724C27.7635 10.7406 26.1602 9.61387 24.8127 9.80625C23.9981 9.92266 23.4088 10.4983 23.2359 11.3464C23.185 11.5959 23.1711 11.8654 23.1549 12.1775C23.1151 12.9474 23.0604 14.0019 22.3958 15.2753C21.9453 16.1385 21.795 17.0262 21.6624 17.8095C21.4724 18.9316 21.3803 19.4721 20.7642 19.6793ZM15.6992 21.0735H18.9059V33.9022H15.6992V21.0735ZM23.5881 18.1355C23.7019 17.4635 23.8195 16.7686 24.1273 16.1791C24.9889 14.5283 25.0619 13.12 25.1055 12.2786C25.1171 12.0545 25.1281 11.8428 25.1498 11.7363C25.1499 11.7356 25.1501 11.7349 25.1502 11.7342C25.489 11.7389 26.3227 12.1962 26.6318 12.7829C27.1667 13.7981 27.1845 14.6113 26.6978 15.783C26.2588 16.8394 26.2918 18.0653 26.726 19.1552C26.2509 19.2213 25.8849 19.6281 25.8849 20.1213C25.8849 20.6606 26.3222 21.0979 26.8615 21.0979L36.8955 21.0976C37.1931 21.0976 37.4672 21.2025 37.6672 21.3929C37.8067 21.5256 37.9729 21.7626 37.9729 22.1368C37.9729 22.6606 37.4928 23.1135 36.9243 23.1259L34.4108 23.1806C33.8716 23.1923 33.444 23.6389 33.4557 24.1782C33.4673 24.7102 33.9021 25.1335 34.4317 25.1335C34.4388 25.1335 34.446 25.1335 34.4533 25.1333L36.5467 25.0878C36.6149 25.2813 36.6505 25.6503 36.5067 26.0731C36.3844 26.4327 36.056 27.0358 35.2298 27.0358C34.6905 27.0358 34.2532 27.473 34.2532 28.0123C34.2532 28.5517 34.6905 28.9889 35.2298 28.9889C35.3778 28.9889 35.5232 28.9797 35.6653 28.9616C35.6775 29.238 35.6206 29.5617 35.469 29.8717C35.2897 30.2381 34.9353 30.675 34.2652 30.675C33.7259 30.675 33.2886 31.1122 33.2886 31.6516C33.2886 32.1909 33.7259 32.6281 34.2652 32.6281C34.3662 32.6281 34.4662 32.6236 34.565 32.6148C34.5624 32.8022 34.5243 33.0364 34.4178 33.2927C34.2647 33.6612 33.7673 34.5184 32.4611 34.5184H26.8235C25.7994 34.5184 24.7377 34.2244 23.6136 33.9132C22.7192 33.6655 21.8021 33.4118 20.8592 33.2985V21.6557C23.0579 21.2573 23.361 19.4774 23.5881 18.1355Z" fill="#C59358"/>
<path d="M25.0003 7.42188C25.5397 7.42188 25.9769 6.98467 25.9769 6.44531C25.9769 5.90596 25.5397 5.46875 25.0003 5.46875H24.9996C24.4603 5.46875 24.0234 5.90596 24.0234 6.44531C24.0234 6.98467 24.4609 7.42188 25.0003 7.42188Z" fill="#C59358"/>
</g>
<defs>
<clipPath id="clip0">
<rect width="50" height="50" fill="white"/>
</clipPath>
</defs>
</svg>
