<svg width="20" height="20" viewBox="0 0 20 20" fill="none" xmlns="http://www.w3.org/2000/svg">
<path d="M5.41643 19.1667C4.23812 19.1693 3.10764 18.7009 2.27637 17.8658L1.3005 16.89C-0.433474 15.156 -0.433513 12.3447 1.30046 10.6108L1.3005 10.6107L9.28899 2.62221C9.44887 2.4567 9.71263 2.45209 9.87818 2.61198C10.0437 2.77187 10.0483 3.03562 9.88841 3.20117C9.88505 3.20465 9.88165 3.20804 9.87818 3.2114L1.88969 11.199C0.481463 12.6078 0.481463 14.8912 1.88969 16.3L2.86638 17.2766C4.27512 18.6849 6.55855 18.6849 7.96729 17.2766L18.405 6.83897C19.4203 5.82305 19.4203 4.1765 18.405 3.16058L17.6724 2.42807C16.6425 1.44712 15.024 1.44712 13.9941 2.42807L4.63387 11.7882C4.01093 12.4111 4.01086 13.421 4.63372 14.0439C4.63376 14.0439 4.63383 14.044 4.63387 14.0441L5.1222 14.5324C5.7569 15.1263 6.74336 15.1263 7.37806 14.5324L14.289 7.62144C14.4489 7.45593 14.7126 7.45132 14.8782 7.61121C15.0437 7.77109 15.0483 8.03485 14.8884 8.2004C14.8851 8.20387 14.8817 8.20727 14.8782 8.21063L7.96729 15.1216C7.00133 16.0264 5.499 16.0264 4.53305 15.1216L4.04472 14.6333C3.09639 13.6849 3.09639 12.1474 4.04472 11.199L13.4049 1.83888C14.746 0.497724 16.9204 0.497724 18.2616 1.83884C18.2616 1.83884 18.2616 1.83884 18.2616 1.83888L18.9941 2.57139C20.3353 3.91255 20.3353 6.08696 18.9942 7.42812C18.9942 7.42812 18.9942 7.42812 18.9941 7.42816L8.55648 17.8658C7.72521 18.7009 6.59473 19.1693 5.41643 19.1667Z" fill="#757575"/>
</svg>
